<svg xmlns="http://www.w3.org/2000/svg" viewBox="0 0 200 260" width="200" height="260">
  <path d="M 18 260 C 24 216 62 198 100 198 C 138 198 176 216 182 260 Z" fill="#465368"/>
  <path d="M 74 200 C 84 214 116 214 126 200 C 118 226 82 226 74 200 Z" fill="#5d6b84"/>
  <ellipse cx="100" cy="118" rx="66" ry="80" fill="#d3ab93"/>
  <ellipse cx="34" cy="124" rx="9" ry="15" fill="#d3ab93"/>
  <ellipse cx="166" cy="124" rx="9" ry="15" fill="#d3ab93"/>
  <path d="M 32 112 C 28 46 68 24 100 24 C 134 24 174 46 170 112 C 166 86 160 70 146 62 C 120 54 80 54 54 62 C 40 70 36 86 32 112 Z" fill="#2b3347"/>
  <path d="M 28 108 C 22 150 26 176 34 190 C 40 160 38 130 40 110 Z" fill="#3e4a63"/>
  <path d="M 174 108 C 180 150 176 176 168 190 C 162 160 164 130 162 110 Z" fill="#3e4a63"/>
</svg>
